<mxfile host="app.diagrams.net" modified="2023-09-17T08:26:51.164Z" agent="Mozilla/5.0 (Windows NT 10.0; Win64; x64) AppleWebKit/537.36 (KHTML, like Gecko) Chrome/116.0.0.0 Safari/537.36" etag="HmdWA5bnrny83-68uE9n" version="21.7.5" type="github">
  <diagram id="C5RBs43oDa-KdzZeNtuy" name="Page-1">
    <mxGraphModel dx="875" dy="445" grid="1" gridSize="10" guides="1" tooltips="1" connect="1" arrows="1" fold="1" page="1" pageScale="1" pageWidth="827" pageHeight="1169" math="0" shadow="0">
      <root>
        <mxCell id="WIyWlLk6GJQsqaUBKTNV-0" />
        <mxCell id="WIyWlLk6GJQsqaUBKTNV-1" parent="WIyWlLk6GJQsqaUBKTNV-0" />
        <mxCell id="2AMq8E4gwnQ-20IgXEp1-27" value="" style="rounded=0;whiteSpace=wrap;html=1;" vertex="1" parent="WIyWlLk6GJQsqaUBKTNV-1">
          <mxGeometry x="60" y="130" width="680" height="400" as="geometry" />
        </mxCell>
        <mxCell id="2AMq8E4gwnQ-20IgXEp1-3" value="" style="html=1;verticalLabelPosition=bottom;align=center;labelBackgroundColor=#ffffff;verticalAlign=top;strokeWidth=2;strokeColor=#0080F0;shadow=0;dashed=0;shape=mxgraph.ios7.icons.user;" vertex="1" parent="WIyWlLk6GJQsqaUBKTNV-1">
          <mxGeometry x="120" y="370" width="60" height="60" as="geometry" />
        </mxCell>
        <mxCell id="2AMq8E4gwnQ-20IgXEp1-6" value="" style="ellipse;whiteSpace=wrap;html=1;aspect=fixed;strokeColor=#00FF1E;strokeWidth=2;" vertex="1" parent="WIyWlLk6GJQsqaUBKTNV-1">
          <mxGeometry x="360" y="210" width="60" height="60" as="geometry" />
        </mxCell>
        <mxCell id="2AMq8E4gwnQ-20IgXEp1-7" value="" style="shape=image;html=1;verticalAlign=top;verticalLabelPosition=bottom;labelBackgroundColor=#ffffff;imageAspect=0;aspect=fixed;image=https://cdn0.iconfinder.com/data/icons/kameleon-free-pack/110/Hacker-128.png;movable=1;resizable=1;rotatable=1;deletable=1;editable=1;locked=0;connectable=1;" vertex="1" parent="WIyWlLk6GJQsqaUBKTNV-1">
          <mxGeometry x="355" y="200" width="70" height="70" as="geometry" />
        </mxCell>
        <mxCell id="2AMq8E4gwnQ-20IgXEp1-8" value="" style="image;points=[];aspect=fixed;html=1;align=center;shadow=0;dashed=0;image=img/lib/allied_telesis/storage/Datacenter_Server_Half_Rack_ToR.svg;" vertex="1" parent="WIyWlLk6GJQsqaUBKTNV-1">
          <mxGeometry x="360" y="361.02" width="60" height="77.96" as="geometry" />
        </mxCell>
        <mxCell id="2AMq8E4gwnQ-20IgXEp1-10" value="" style="endArrow=classic;html=1;rounded=0;strokeColor=#FF8161;flowAnimation=1;" edge="1" parent="WIyWlLk6GJQsqaUBKTNV-1">
          <mxGeometry width="50" height="50" relative="1" as="geometry">
            <mxPoint x="390" y="270" as="sourcePoint" />
            <mxPoint x="390" y="360" as="targetPoint" />
          </mxGeometry>
        </mxCell>
        <mxCell id="2AMq8E4gwnQ-20IgXEp1-13" value="" style="endArrow=classic;html=1;rounded=0;exitX=1.033;exitY=0.491;exitDx=0;exitDy=0;exitPerimeter=0;entryX=-0.033;entryY=0.487;entryDx=0;entryDy=0;entryPerimeter=0;flowAnimation=1;" edge="1" parent="WIyWlLk6GJQsqaUBKTNV-1" source="2AMq8E4gwnQ-20IgXEp1-3" target="2AMq8E4gwnQ-20IgXEp1-8">
          <mxGeometry width="50" height="50" relative="1" as="geometry">
            <mxPoint x="390" y="360" as="sourcePoint" />
            <mxPoint x="440" y="310" as="targetPoint" />
          </mxGeometry>
        </mxCell>
        <mxCell id="2AMq8E4gwnQ-20IgXEp1-21" value="1. Issues request to legitimate website" style="edgeLabel;html=1;align=center;verticalAlign=middle;resizable=0;points=[];imageWidth=28;fontSize=7.5;" vertex="1" connectable="0" parent="2AMq8E4gwnQ-20IgXEp1-13">
          <mxGeometry x="0.0806" y="3" relative="1" as="geometry">
            <mxPoint x="-7" y="14" as="offset" />
          </mxGeometry>
        </mxCell>
        <mxCell id="2AMq8E4gwnQ-20IgXEp1-14" value="" style="curved=1;endArrow=classic;html=1;rounded=0;fillColor=#f8cecc;strokeColor=#FF8161;flowAnimation=1;" edge="1" parent="WIyWlLk6GJQsqaUBKTNV-1">
          <mxGeometry width="50" height="50" relative="1" as="geometry">
            <mxPoint x="420" y="400" as="sourcePoint" />
            <mxPoint x="590" y="240" as="targetPoint" />
            <Array as="points">
              <mxPoint x="450" y="400" />
              <mxPoint x="500" y="400" />
              <mxPoint x="500" y="310" />
              <mxPoint x="500" y="240" />
              <mxPoint x="550" y="240" />
            </Array>
          </mxGeometry>
        </mxCell>
        <mxCell id="2AMq8E4gwnQ-20IgXEp1-16" value="" style="sketch=0;aspect=fixed;pointerEvents=1;shadow=0;dashed=0;html=1;strokeColor=none;labelPosition=center;verticalLabelPosition=bottom;verticalAlign=top;align=center;shape=mxgraph.mscae.enterprise.website_generic;fillColor=#FF8161;" vertex="1" parent="WIyWlLk6GJQsqaUBKTNV-1">
          <mxGeometry x="600" y="212.5" width="60" height="52.79" as="geometry" />
        </mxCell>
        <mxCell id="2AMq8E4gwnQ-20IgXEp1-17" value="" style="sketch=0;aspect=fixed;pointerEvents=1;shadow=0;dashed=0;html=1;strokeColor=none;labelPosition=center;verticalLabelPosition=bottom;verticalAlign=top;align=center;shape=mxgraph.mscae.enterprise.website_generic;fillColor=#3399FF;" vertex="1" parent="WIyWlLk6GJQsqaUBKTNV-1">
          <mxGeometry x="600" y="373.61" width="60" height="52.79" as="geometry" />
        </mxCell>
        <mxCell id="2AMq8E4gwnQ-20IgXEp1-18" value="" style="html=1;labelBackgroundColor=#ffffff;startArrow=none;startFill=0;startSize=6;endArrow=classic;endFill=1;endSize=6;jettySize=auto;orthogonalLoop=1;strokeWidth=1;dashed=1;fontSize=14;rounded=0;flowAnimation=1;" edge="1" parent="WIyWlLk6GJQsqaUBKTNV-1">
          <mxGeometry width="60" height="60" relative="1" as="geometry">
            <mxPoint x="480" y="400" as="sourcePoint" />
            <mxPoint x="590" y="400" as="targetPoint" />
          </mxGeometry>
        </mxCell>
        <mxCell id="2AMq8E4gwnQ-20IgXEp1-19" value="Attacker" style="text;html=1;align=center;verticalAlign=middle;resizable=0;points=[];autosize=1;strokeColor=none;fillColor=none;" vertex="1" parent="WIyWlLk6GJQsqaUBKTNV-1">
          <mxGeometry x="355" y="180" width="70" height="30" as="geometry" />
        </mxCell>
        <mxCell id="2AMq8E4gwnQ-20IgXEp1-20" value="Client" style="text;html=1;align=center;verticalAlign=middle;resizable=0;points=[];autosize=1;strokeColor=none;fillColor=none;" vertex="1" parent="WIyWlLk6GJQsqaUBKTNV-1">
          <mxGeometry x="125" y="340" width="50" height="30" as="geometry" />
        </mxCell>
        <mxCell id="2AMq8E4gwnQ-20IgXEp1-22" value="2. Injects fake &lt;br style=&quot;font-size: 7.5px;&quot;&gt;&amp;nbsp; &amp;nbsp; DNS entry" style="edgeLabel;html=1;align=center;verticalAlign=middle;resizable=0;points=[];imageWidth=28;fontSize=7.5;" vertex="1" connectable="0" parent="WIyWlLk6GJQsqaUBKTNV-1">
          <mxGeometry x="359.9987309402921" y="320.0048824849965" as="geometry" />
        </mxCell>
        <mxCell id="2AMq8E4gwnQ-20IgXEp1-23" value="DNS" style="text;html=1;align=center;verticalAlign=middle;resizable=0;points=[];autosize=1;strokeColor=none;fillColor=none;" vertex="1" parent="WIyWlLk6GJQsqaUBKTNV-1">
          <mxGeometry x="365" y="438.98" width="50" height="30" as="geometry" />
        </mxCell>
        <mxCell id="2AMq8E4gwnQ-20IgXEp1-24" value="3. Request resolves to &lt;br&gt;fake website" style="edgeLabel;html=1;align=center;verticalAlign=middle;resizable=0;points=[];imageWidth=28;fontSize=7.5;" vertex="1" connectable="0" parent="WIyWlLk6GJQsqaUBKTNV-1">
          <mxGeometry x="550.0040007359187" y="265.294034530311" as="geometry" />
        </mxCell>
        <mxCell id="2AMq8E4gwnQ-20IgXEp1-25" value="Fake Website" style="text;html=1;align=center;verticalAlign=middle;resizable=0;points=[];autosize=1;strokeColor=none;fillColor=none;" vertex="1" parent="WIyWlLk6GJQsqaUBKTNV-1">
          <mxGeometry x="575" y="180" width="100" height="30" as="geometry" />
        </mxCell>
        <mxCell id="2AMq8E4gwnQ-20IgXEp1-26" value="Legit Website" style="text;html=1;align=center;verticalAlign=middle;resizable=0;points=[];autosize=1;strokeColor=none;fillColor=none;" vertex="1" parent="WIyWlLk6GJQsqaUBKTNV-1">
          <mxGeometry x="575" y="340" width="100" height="30" as="geometry" />
        </mxCell>
      </root>
    </mxGraphModel>
  </diagram>
</mxfile>
